<?xml version="1.0" standalone="no"?>
<!DOCTYPE svg PUBLIC "-//W3C//DTD SVG 20010904//EN"
 "http://www.w3.org/TR/2001/REC-SVG-20010904/DTD/svg10.dtd">
<svg version="1.0" xmlns="http://www.w3.org/2000/svg"
 width="2048.000000pt" height="2048.000000pt" viewBox="0 0 2048.000000 2048.000000"
 preserveAspectRatio="xMidYMid meet">
<metadata>
Created by potrace 1.14, written by Peter Selinger 2001-2017
</metadata>
<g transform="translate(0.000000,2048.000000) scale(0.100000,-0.100000)"
fill="#000000" stroke="none">
<path d="M9859 20266 c-2 -2 -67 -7 -144 -10 -77 -4 -153 -9 -170 -11 -16 -2
-68 -7 -115 -10 -47 -3 -98 -7 -115 -9 -16 -2 -61 -7 -100 -10 -90 -9 -144
-16 -175 -21 -14 -2 -47 -7 -75 -10 -27 -3 -63 -8 -80 -10 -151 -22 -244 -36
-265 -40 -14 -3 -41 -8 -60 -11 -319 -53 -1025 -221 -1230 -293 -14 -5 -97
-32 -185 -61 -88 -28 -169 -55 -180 -60 -11 -4 -42 -16 -70 -25 -128 -44 -421
-161 -607 -241 -475 -205 -1138 -564 -1490 -805 -31 -21 -59 -39 -63 -39 -3 0
-11 -5 -18 -11 -7 -6 -75 -54 -152 -107 -226 -156 -540 -395 -727 -553 -136
-116 -258 -223 -352 -309 -117 -106 -535 -527 -635 -640 -52 -58 -111 -123
-130 -145 -20 -22 -61 -69 -90 -105 -30 -36 -57 -67 -60 -70 -11 -8 -197 -242
-287 -360 -471 -618 -921 -1383 -1206 -2045 -16 -38 -39 -90 -50 -115 -30 -67
-133 -327 -184 -468 -156 -427 -301 -929 -385 -1328 -11 -54 -22 -108 -25
-119 -10 -50 -37 -189 -54 -290 -23 -132 -31 -187 -45 -290 -3 -27 -8 -62 -11
-76 -2 -15 -6 -47 -9 -70 -5 -43 -11 -86 -20 -159 -2 -19 -7 -69 -11 -110 -3
-41 -7 -82 -9 -90 -1 -8 -6 -62 -10 -120 -3 -58 -8 -125 -10 -150 -24 -288
-24 -988 0 -1285 2 -27 7 -93 10 -145 4 -52 8 -107 10 -123 2 -15 7 -62 10
-105 4 -42 9 -84 10 -92 2 -8 6 -44 9 -80 4 -36 9 -76 11 -90 3 -14 7 -45 10
-70 8 -74 23 -171 45 -300 5 -30 12 -73 16 -95 3 -22 12 -71 20 -110 8 -38 17
-86 20 -105 3 -19 7 -43 10 -52 3 -9 7 -25 9 -36 24 -129 131 -569 156 -647
11 -36 69 -234 74 -255 10 -40 129 -391 173 -510 101 -270 168 -435 248 -608
19 -41 34 -76 34 -78 0 -7 92 -199 172 -359 90 -179 220 -418 307 -564 31 -53
60 -103 64 -111 4 -8 25 -42 47 -75 22 -33 47 -73 56 -90 40 -71 226 -344 376
-553 148 -205 472 -612 567 -712 9 -9 33 -36 55 -61 231 -264 663 -692 921
-911 17 -14 53 -45 81 -69 64 -55 81 -69 179 -149 44 -35 82 -67 85 -70 15
-16 364 -278 455 -340 27 -19 54 -39 60 -43 5 -5 22 -16 36 -25 14 -9 86 -57
160 -106 224 -149 618 -388 709 -429 8 -4 40 -21 70 -38 125 -70 650 -329 666
-329 2 0 34 -14 71 -31 113 -52 424 -176 596 -238 180 -65 583 -197 632 -207
6 -1 37 -10 70 -19 147 -41 321 -85 450 -114 77 -18 158 -37 180 -42 22 -5 51
-12 65 -14 14 -3 84 -16 155 -29 72 -14 148 -28 170 -31 23 -3 52 -7 65 -10
14 -3 88 -14 165 -25 192 -28 179 -26 335 -45 94 -12 185 -20 310 -30 41 -3
98 -8 125 -10 164 -13 372 -19 690 -19 372 -1 532 5 830 29 64 5 92 8 210 20
22 2 69 7 105 11 36 3 73 8 82 9 9 2 48 7 85 10 37 4 71 9 74 11 3 2 28 6 56
9 27 3 60 8 74 10 13 3 44 8 69 11 25 3 54 8 65 10 10 2 37 6 60 10 22 3 72
12 110 20 39 8 86 17 105 20 19 3 85 16 145 29 61 13 121 26 135 28 14 3 54
13 90 22 36 9 72 18 80 20 143 29 573 153 813 234 l178 60 62 -28 c34 -16 82
-37 107 -49 180 -82 483 -184 735 -248 26 -6 212 -47 230 -50 11 -1 47 -7 80
-13 91 -16 156 -25 335 -46 190 -22 634 -23 845 -1 17 2 62 6 100 10 39 4 108
13 155 21 47 8 102 16 123 19 118 18 331 68 492 116 612 182 1160 476 1640
879 570 480 1033 1120 1295 1791 29 74 57 144 61 155 17 40 80 242 109 350 55
205 105 468 125 655 4 36 9 72 10 82 24 125 24 648 1 883 -11 108 -47 360 -61
425 -2 8 -13 58 -24 110 -56 264 -153 568 -261 815 -9 22 -30 68 -45 103 l-28
63 82 252 c92 278 110 334 116 363 2 10 16 60 30 109 15 50 29 97 30 105 2 8
24 96 49 195 83 336 152 698 201 1055 3 25 8 56 10 70 2 14 6 50 9 80 4 30 8
69 10 85 4 26 8 73 21 210 2 17 6 71 10 122 3 50 8 115 10 145 34 436 21 1137
-31 1643 -3 39 -8 81 -9 95 -4 45 -17 155 -21 174 -2 10 -6 43 -10 74 -3 30
-8 63 -9 71 -2 9 -6 41 -10 71 -4 30 -9 60 -10 65 -6 29 -15 85 -21 120 -10
67 -15 94 -50 275 -35 175 -45 221 -109 485 -119 490 -353 1175 -536 1573 -16
35 -29 65 -29 67 0 7 -117 250 -210 436 -82 164 -152 293 -302 557 -85 150
-462 732 -487 752 -4 3 -39 50 -78 106 -58 81 -190 253 -256 334 -7 8 -30 38
-52 65 -22 28 -42 52 -45 55 -3 3 -25 30 -50 60 -66 81 -215 250 -330 375 -97
106 -512 518 -605 600 -49 44 -99 89 -110 100 -44 42 -285 244 -400 336 -303
241 -555 420 -940 666 -92 59 -333 203 -339 203 -2 0 -37 19 -78 43 -40 24
-125 71 -189 104 -736 390 -1455 668 -2244 868 -137 35 -263 65 -280 68 -16 3
-106 21 -200 41 -93 19 -186 37 -206 40 -20 3 -42 7 -50 10 -8 3 -32 7 -54 10
-22 3 -71 10 -110 16 -38 6 -85 13 -104 16 -19 2 -46 6 -60 8 -39 6 -100 15
-151 21 -25 2 -64 7 -87 10 -89 11 -120 14 -178 20 -97 9 -154 14 -250 20 -49
3 -112 8 -140 11 -58 6 -1010 15 -1016 10z"/>
</g>
</svg>
